<svg xmlns="http://www.w3.org/2000/svg" width="285.318" height="53" viewBox="0 0 285.318 53">
  <g id="Gruppe_57" data-name="Gruppe 57" transform="translate(-126.131 -36.325)">
    <text id="Personalentwicklung_Mainfranken" data-name="Personalentwicklung
Mainfranken" transform="translate(182.449 57.325)" fill="#161615" font-size="22" font-family="Silka-Medium, Silka" font-weight="500"><tspan x="0" y="0">Personalentwicklung</tspan><tspan x="0" y="26">Mainfranken</tspan></text>
    <g id="Gruppe_56" data-name="Gruppe 56" transform="translate(-1049.472 -1473.759)">
      <g id="Gruppe_51" data-name="Gruppe 51" transform="translate(1188.117 1546.163)">
        <path id="Pfad_260" data-name="Pfad 260" d="M161.457,556.59a8.478,8.478,0,0,1-8.466-8.469h4.416a4.05,4.05,0,1,0,8.1,0h4.416A8.478,8.478,0,0,1,161.457,556.59Z" transform="translate(-152.991 -548.121)" fill="#161615"/>
      </g>
      <g id="Gruppe_52" data-name="Gruppe 52" transform="translate(1175.603 1517.699)">
        <path id="Pfad_261" data-name="Pfad 261" d="M164.937,542.973h-4.416a4.049,4.049,0,0,0-8.1,0h-4.416a8.465,8.465,0,0,1,16.93,0Z" transform="translate(-148.007 -534.509)" fill="#161615"/>
      </g>
      <g id="Gruppe_53" data-name="Gruppe 53" transform="translate(1200.616 1517.699)">
        <path id="Pfad_262" data-name="Pfad 262" d="M174.906,542.973H170.49a4.049,4.049,0,0,0-8.1,0h-4.416a8.465,8.465,0,0,1,16.93,0Z" transform="translate(-157.976 -534.509)" fill="#161615"/>
      </g>
      <g id="Gruppe_54" data-name="Gruppe 54" transform="translate(1200.616 1528.14)">
        <path id="Pfad_263" data-name="Pfad 263" d="M158.885,556.664v-4.416a4.049,4.049,0,1,0,0-8.1v-4.417a8.465,8.465,0,1,1,0,16.93Z" transform="translate(-158.885 -539.733)" fill="#161615"/>
      </g>
    </g>
  </g>
</svg>
