<svg xmlns="http://www.w3.org/2000/svg" width="246.001" height="111.052" viewBox="0 0 246.001 111.052">
  <g id="layer1" transform="translate(-326.626 -516.998)">
    <rect id="rect3396" width="246.001" height="111.051" transform="translate(326.626 516.998)"/>
    <path id="path2563" d="M552.041,570.845c-17.455,0-31.606,14.386-31.606,32.18s14.152,32.18,31.606,32.18c17.5,0,31.67-14.4,31.67-32.18A31.912,31.912,0,0,0,552.041,570.845Zm66.782,1.4L593.461,596.4V572.374h-6.946V633.8h7.009V604.555l26.126,29.185h9.622l-29.949-33.454.191-.191,28.93-27.847h-9.622Zm-108.329.128L463.339,633.74h8.73l11.789-15.294h26.636V633.8h6.946V572.375Zm41.547,5.48a25.143,25.143,0,1,1-24.661,25.171A25.007,25.007,0,0,1,552.041,577.855Zm.128,3.632-5.1,5.544a7,7,0,0,0-1.784,4.652,6.923,6.923,0,0,0,5.926,6.882v9.622l-5.161-3a6.985,6.985,0,0,0-2.8-8.985,6.683,6.683,0,0,0-4.779-.765l-7.328,1.784,2.23,7.264a7.044,7.044,0,0,0,3.122,3.823,6.7,6.7,0,0,0,8.666-1.721l6.053,3.568v8.284H535.729l1.465,1.657h29.759l1.4-1.657H552.934v-8.284l6.054-3.568a6.761,6.761,0,0,0,8.73,1.721,7.155,7.155,0,0,0,3.122-3.823l2.23-7.264-7.328-1.784a6.647,6.647,0,0,0-4.779.765,6.938,6.938,0,0,0-2.8,8.921l-5.225,3.059v-9.558a6.977,6.977,0,0,0,6.117-6.946,7.068,7.068,0,0,0-1.784-4.652Zm-41.675,2.294V612.01H488.828Zm41.675.319,3.632,4.015a5.531,5.531,0,0,1,.828,1.083,5.379,5.379,0,0,1,.637,2.485,5.1,5.1,0,1,1-10.2,0,5.435,5.435,0,0,1,.637-2.485,4.027,4.027,0,0,1,.828-1.083Zm-12.235,12.936a5.079,5.079,0,0,1,2.485.7,5.277,5.277,0,0,1,1.911,7.073,5.17,5.17,0,0,1-7.009,1.976A5.1,5.1,0,0,1,535.537,605a5.225,5.225,0,0,1-.573-1.275l-1.529-5.225,5.225-1.274A5.073,5.073,0,0,1,539.934,597.035Zm24.278,0a5.457,5.457,0,0,1,1.338.191l5.225,1.274-1.529,5.225a5.15,5.15,0,0,1-.573,1.275,5.38,5.38,0,0,1-1.784,1.784,5.167,5.167,0,0,1-7.01-1.975,5.28,5.28,0,0,1,1.912-7.073A4.925,4.925,0,0,1,564.212,597.035Zm-70.8,42.949c-3.76-.015-5.416,3.316-5.416,6.818,0,4.519,2.409,6.755,5.1,6.755a3.915,3.915,0,0,0,3.441-1.975l.255,1.657h1.529v-7.009h-4.652V648.4h2.613c-.482,2.615-2.167,2.868-2.677,2.868-1.583,0-3.25-.956-3.25-4.461,0-3.3,1.522-4.588,3.186-4.588a2.552,2.552,0,0,1,2.421,2.1h2.358A4.675,4.675,0,0,0,493.416,639.984Zm-33.964.319v12.936h4.779c3.64,0,4.588-3.969,4.588-6.755,0-2.457-.8-6.181-4.524-6.181Zm83.923,0v4.588h-.064a2.5,2.5,0,0,0-2.358-1.529c-1.822,0-3.441,1.67-3.441,4.97,0,2.659,1.068,5.162,3.5,5.162a2.487,2.487,0,0,0,2.358-1.466h.064v1.211h2.1V640.3h-2.167Zm4.333,0v12.936h2.166v-5.544c0-1.463.777-2.166,1.721-2.166,1.4,0,1.4,1.152,1.4,1.848v5.862h2.167v-6.627c0-2.108-1.213-3.25-2.8-3.25a2.606,2.606,0,0,0-2.485,1.529V640.3h-2.167Zm37.405,0v12.936h2.167V650.18l.892-1.083,1.975,4.142h2.612l-2.995-5.863,2.931-3.759H590.02l-2.74,3.7V640.3Zm-114.51.064v2.358h2.166v-2.358Zm95.712,0v2.358h2.166v-2.358Zm4.779.7v2.549h-1.147v1.848h1.147v5.8c0,1.233.349,2.039,2.23,2.039h.255c.331,0,.663.018,1.02,0v-1.975a3.315,3.315,0,0,1-.446.064c-.862,0-.892-.2-.892-.765v-5.162H574.6v-1.848h-1.338v-2.549Zm-109.412,1.466h2.23c.989,0,2.549.339,2.549,4.142,0,2.125-.6,4.333-2.485,4.333h-2.294Zm16.568.828c-3.569,0-3.887,3.706-3.887,4.843,0,3.93,1.774,5.289,4.078,5.289a3.587,3.587,0,0,0,3.569-3.059H479.78a1.313,1.313,0,0,1-1.338,1.02c-1.736,0-1.848-1.651-1.912-2.358h5.544v-.446C482.074,644.246,479.861,643.362,478.251,643.362Zm25.744,0c-3.609,0-3.951,3.706-3.951,4.843,0,3.93,1.749,5.289,4.078,5.289a3.643,3.643,0,0,0,3.632-3.059h-2.23a1.379,1.379,0,0,1-1.4,1.02c-1.754,0-1.851-1.651-1.912-2.358h5.671v-.446C507.882,644.246,505.626,643.362,503.994,643.362Zm8.857,0a3.053,3.053,0,0,0-3.314,3.25c0,3.563,5.1,2.373,5.1,3.951,0,.369-.278,1.02-1.4,1.02-1.369,0-1.784-.571-1.784-1.4h-2.23c.064,2.569,2.062,3.314,3.951,3.314,1.3,0,3.632-.5,3.632-3.314,0-3.507-5.161-2.442-5.161-3.951,0-.423.15-.892,1.338-.892s1.372.581,1.466,1.211h2.1C516.377,643.826,514.473,643.362,512.852,643.362Zm20.073,0a2.621,2.621,0,0,0-2.485,1.657h-.064v-1.4h-2.1v9.622h2.23v-5.544c0-1.463.734-2.167,1.721-2.167,1.361,0,1.4,1.152,1.4,1.848v5.863h2.167v-6.627C535.792,644.5,534.553,643.362,532.924,643.362Zm27.847,0c-3.625,0-4.015,3.706-4.015,4.843,0,3.93,1.82,5.289,4.142,5.289a3.671,3.671,0,0,0,3.632-3.059H562.3a1.4,1.4,0,0,1-1.4,1.02c-1.764,0-1.853-1.651-1.912-2.358h5.608v-.446C564.595,644.246,562.392,643.362,560.772,643.362Zm18.67,0a3.119,3.119,0,0,0-3.377,3.25c0,3.563,5.161,2.373,5.161,3.951,0,.369-.26,1.02-1.4,1.02-1.369,0-1.848-.571-1.848-1.4h-2.23c.058,2.569,2.121,3.314,4.015,3.314,1.318,0,3.632-.5,3.632-3.314,0-3.507-5.161-2.442-5.162-3.951,0-.423.153-.892,1.338-.892,1.206,0,1.372.581,1.465,1.211h2.1C582.972,643.826,581.084,643.362,579.442,643.362Zm18.48,0c-1.682,0-3.449.431-3.7,3.377h2.1c.064-.581.25-1.338,1.338-1.338.545,0,1.4.028,1.4,1.083,0,.553-.41.708-.765.765l-1.912.382a2.806,2.806,0,0,0-2.421,3.059,2.477,2.477,0,0,0,2.485,2.8,3.228,3.228,0,0,0,2.613-1.338,1.884,1.884,0,0,0,1.784,1.274,3.2,3.2,0,0,0,1.147-.191v-1.72c-.724,0-.828-.469-.828-.765v-4.588C601.172,643.815,599.1,643.362,597.922,643.362Zm8.539,0a3.055,3.055,0,0,0-3.314,3.25c0,3.563,5.1,2.373,5.1,3.951,0,.369-.291,1.02-1.4,1.02-1.379,0-1.784-.571-1.784-1.4h-2.23c.064,2.569,2.057,3.314,3.951,3.314,1.29,0,3.632-.5,3.632-3.314,0-3.507-5.162-2.442-5.162-3.951,0-.423.163-.892,1.338-.892,1.2,0,1.372.581,1.465,1.211h2.1C609.981,643.826,608.089,643.362,606.461,643.362Zm8.857,0a3.055,3.055,0,0,0-3.314,3.25c0,3.563,5.1,2.373,5.1,3.951,0,.369-.281,1.02-1.4,1.02-1.381,0-1.784-.571-1.784-1.4h-2.23c.056,2.569,2.054,3.314,3.951,3.314,1.295,0,3.632-.5,3.632-3.314,0-3.507-5.161-2.442-5.161-3.951,0-.423.148-.892,1.338-.892s1.372.581,1.466,1.211h2.1C618.848,643.826,616.942,643.362,615.318,643.362Zm9.048,0c-3.607,0-3.951,3.706-3.951,4.843,0,3.93,1.815,5.289,4.142,5.289a3.634,3.634,0,0,0,3.632-3.059h-2.23a1.372,1.372,0,0,1-1.4,1.02c-1.756,0-1.912-1.651-1.976-2.358h5.672v-.446C628.254,644.246,625.993,643.362,624.367,643.362Zm-105.716.255v6.308c0,2.449,1.183,3.568,2.8,3.568a2.656,2.656,0,0,0,2.485-1.657v1.4h2.1v-9.622h-2.167v5.544c0,1.708-.936,2.167-1.657,2.167-.657,0-1.4-.232-1.4-1.72v-5.99Zm-48.047.127v9.495h2.166v-9.495Zm95.712,0v9.495h2.166v-9.495Zm-88.065,1.721c.693,0,1.532.456,1.657,2.039h-3.314C476.713,646.214,477.238,645.465,478.251,645.465Zm25.935,0c.7,0,1.529.456,1.657,2.039h-3.377C502.587,646.214,503.158,645.465,504.186,645.465Zm56.522,0c.681,0,1.522.456,1.657,2.039h-3.377C559.1,646.214,559.657,645.465,560.707,645.465Zm63.659,0c.7,0,1.537.456,1.657,2.039h-3.378C622.766,646.214,623.347,645.465,624.367,645.465Zm-82.776.127c1.5,0,1.848,1.522,1.848,3.059,0,1.415-.518,2.8-1.912,2.8s-1.784-1.794-1.784-2.931C539.743,647.02,540.237,645.592,541.591,645.592Zm57.478,2.995v1.147a1.935,1.935,0,0,1-1.912,1.975,1.074,1.074,0,0,1-1.02-1.21c0-1.045.67-1.241,1.465-1.4A2.746,2.746,0,0,0,599.069,648.587Zm30.842,1.975v2.676h2.358v-2.676Z" transform="translate(-100.047 -40.559)" fill="#fff"/>
  </g>
</svg>
