<svg xmlns="http://www.w3.org/2000/svg" width="213.551" height="63.146" viewBox="0 0 213.551 63.146">
  <path id="path2466" d="M62.634,0,38.473,63.145h4.042L66.677,0Zm68.117,0L106.636,63.145h4.042L134.794,0Zm78.757,0L185.393,63.145h4.042L213.551,0ZM86.424,5.622c-9.758,0-16.355,5.871-16.355,14.543a11.877,11.877,0,0,0,3.206,8.317c2.015,2.089,4.481,3.134,8.968,4.507l4.972,1.533c5.934,1.788,8.689,4.713,8.689,8.921a8.176,8.176,0,0,1-3.438,6.83c-2.026,1.537-3.948,2.137-7.667,2.137A21.489,21.489,0,0,1,71.369,48l-2.927,5.2A29.5,29.5,0,0,0,84.8,57.895a19.471,19.471,0,0,0,11.291-3.113A14.514,14.514,0,0,0,103.1,42.608a14.115,14.115,0,0,0-3.345-8.968c-2.08-2.375-4.433-3.728-8.875-5.111l-5.715-1.812c-5.819-1.868-8.038-4-8.038-7.76,0-4.832,3.518-7.852,9.618-7.852,4.944,0,8.044,1.632,12.174,4.321l2.927-4.832A26.55,26.55,0,0,0,86.424,5.622Zm56.733,1.022V56.873h6.737V32.85h21.234V56.873h6.877V6.644h-6.877V27.228H149.894V6.644ZM0,6.737V56.965H13.846c7.62,0,9.6-.426,12.406-1.487a13.33,13.33,0,0,0,8.271-12.406,12.791,12.791,0,0,0-4.786-10.455,13.416,13.416,0,0,0-5.715-2.509c5.249-2.039,8.317-5.572,8.317-10.687,0-5.36-3.583-9.741-8.921-11.57-2.669-.914-5.211-1.115-15.333-1.115Zm6.6,5.576h7.248a20.9,20.9,0,0,1,5.483.511A7.23,7.23,0,0,1,24.9,20.259a7.632,7.632,0,0,1-.79,3.392c-1.422,3.264-4.52,4.275-8.642,4.275H6.6ZM6.6,33.5h9.014a29.063,29.063,0,0,1,5.9.558c3.459.7,5.947,4.135,5.947,8.5,0,5.92-2.831,8.782-9.99,8.782H6.6Z" fill="#231f20" fill-rule="evenodd"/>
</svg>
