<svg xmlns="http://www.w3.org/2000/svg" width="1928.837" height="467.168" viewBox="0 0 1928.837 467.168">
  <g id="Gruppe_73" data-name="Gruppe 73" transform="translate(2.5 -625.514)">
    <g id="Gruppe_72" data-name="Gruppe 72">
      <path id="Pfad_299" data-name="Pfad 299" d="M1096.7,341.434V236.069l-16.849-3.907V214.579c17.1-32.237-18.779-34.556-18.779-34.556v-26.9c-9.89-3.389-10.773-29.64-10.773-29.64.979,22.222-7.571,31.015-7.571,31.015v27.351c-.406.029-.771.083-1.161.123-29.848,2.922-12.273,34.313-12.273,34.313v18.072l-16.85,5.863V260L719.376,212.9V175.014l-39.562-44.691-4.579,6.869L647.58,178.678v22.713L494.821,178.313v-41.4l-9.89-2.2V120.065L451.776,88.746l-30.219,30.222v17.949l-9.527,2.565v45.057L354.5,204.372l-33.32,11.488V198.095l-.454-.067v-.173l-10.658-1.524v-7.448l-10.869-.488s4.03-19.6-12.27-25.277V144.253s2.746-14.288-8.428-14.288h-1.831a11.17,11.17,0,0,0-1.857.149v.173c-8.993,1.516-6.567,14.138-6.567,14.138v18.867c-16.3,5.676-12.273,25.274-12.273,25.274l-3.48,2.015v6.229l-9.343,3.114v92.732" transform="translate(728.675 540.254)" fill="none" stroke="#e71d36" stroke-miterlimit="10" stroke-width="5"/>
      <path id="Pfad_300" data-name="Pfad 300" d="M1369.44,320.476l-37.671-70.143-489.377,24.41-53.239-11.957L589.9,141.472,442.234,198.74,278.56,255.671,139.792,333.949H-556.4" transform="translate(553.903 628.233)" fill="none" stroke="#e71d36" stroke-miterlimit="10" stroke-width="5"/>
      <path id="Pfad_308" data-name="Pfad 308" d="M1370.167,336.688l-38.4-86.355-489.377,24.41-53.239-11.957L589.9,141.472,442.234,198.74,278.56,255.671,139.792,333.949H-556.386" transform="translate(553.886 705.233)" fill="none" stroke="#e71d36" stroke-miterlimit="10" stroke-width="5"/>
      <path id="Pfad_309" data-name="Pfad 309" d="M1366.472,331l-34.7-80.668-489.377,24.41-53.239-11.957L589.9,141.472,442.234,198.74,278.56,255.671,139.792,333.949H-558.96" transform="translate(556.46 756.233)" fill="none" stroke="#e71d36" stroke-miterlimit="10" stroke-width="5"/>
    </g>
  </g>
</svg>
