<svg xmlns="http://www.w3.org/2000/svg" width="771.55" height="295.032" viewBox="0 0 771.55 295.032">
  <g id="Gruppe_62" data-name="Gruppe 62" transform="translate(-138.564 -85.26)">
    <path id="Pfad_299" data-name="Pfad 299" d="M778.709,247.3V181.184l-10.572-2.451V167.7c10.726-20.227-11.783-21.682-11.783-21.682V129.141c-6.205-2.127-6.76-18.6-6.76-18.6.615,13.943-4.75,19.46-4.75,19.46v17.161c-.255.018-.484.052-.728.077-18.728,1.833-7.7,21.53-7.7,21.53v11.339l-10.572,3.679V196.2L541.959,166.649V142.875l-24.823-28.042-2.873,4.31-17.352,26.031v14.251l-95.849-14.48V118.971l-6.205-1.38V108.4l-20.8-19.651-18.961,18.963v11.262l-5.978,1.609v28.271l-36.1,12.444L292.112,168.5V157.357l-.285-.042v-.109l-6.688-.956v-4.673l-6.82-.306s2.528-12.3-7.7-15.86V123.574s1.723-8.965-5.288-8.965h-1.149a7.009,7.009,0,0,0-1.165.094v.109c-5.643.951-4.121,8.871-4.121,8.871v11.838c-10.229,3.562-7.7,15.858-7.7,15.858l-2.183,1.264v3.908l-5.862,1.954V216.69" transform="translate(69.708 0)" fill="none" stroke="#e71d36" stroke-miterlimit="10" stroke-width="5"/>
    <path id="Pfad_300" data-name="Pfad 300" d="M139.792,262.242l87.07-49.116,102.7-35.721,92.651-35.933,125.024,76.119,33.405,7.5L887.7,209.777l20.093,50.233" transform="translate(0 35.559)" fill="none" stroke="#e71d36" stroke-miterlimit="10" stroke-width="5"/>
    <path id="Pfad_308" data-name="Pfad 308" d="M139.792,262.242l87.07-49.116,102.7-35.721,92.651-35.933,125.024,76.119,33.405,7.5L887.7,209.777l20.093,50.233" transform="translate(0 83.873)" fill="none" stroke="#e71d36" stroke-miterlimit="10" stroke-width="5"/>
    <path id="Pfad_309" data-name="Pfad 309" d="M139.792,262.242l87.07-49.116,102.7-35.721,92.651-35.933,125.024,76.119,33.405,7.5L887.7,209.777l20.093,50.233" transform="translate(0 115.873)" fill="none" stroke="#e71d36" stroke-miterlimit="10" stroke-width="5"/>
  </g>
</svg>
