<svg xmlns="http://www.w3.org/2000/svg" width="260.107" height="33.006" viewBox="0 0 260.107 33.006">
  <path id="DaimlerLogo" d="M7.779,0C1.04,0,.856.424,1.183,2.436H3.428C5.534,2.436,6,2.72,6,4.542V26.628c0,3.135-.888,3.466-5.9,3.745a3.738,3.738,0,0,0,0,1.824H17.689c13.379,0,18.9-6.46,18.9-16.1C36.592,6.086,30.735,0,17.256,0ZM11.85,26.3V2.765h4.822c8.985,0,13.663,5.239,13.663,14.227,0,10.077-5.1,12.644-13.1,12.644-4.354,0-5.381-.467-5.381-3.319M57.337.332c-2.2,0-2.808.751-4.354,4.354L43.719,26.632c-1.265,2.99-1.685,3.269-5.289,3.74a4,4,0,0,0,0,1.824H51.816c1.167,0,1.5-.752,1.167-2.106h-4.02c-2.576,0-2.576-.7-1.5-3.464l1.918-5.1H61.453L64.4,28.589c.518,1.217,0,1.638-5.1,1.778a4,4,0,0,0,0,1.834h15.16c1.217,0,1.5-.751,1.217-2.1H74.612c-2.386,0-2.9-.418-3.419-1.635L60.382,3.809A11.971,11.971,0,0,1,59.165.355ZM55.276,6.788l5.1,12.171H50.411ZM80.78.941c-1.966,0-2.245.887-1.966,2.1h2.247c2.152,0,2.572.284,2.572,1.968V27.377c0,1.918-.9,2.386-4.638,3A2.84,2.84,0,0,0,79,32.2H93.209c1.4,0,1.535-.751,1.219-2.1h-2.52c-1.968,0-2.435-.329-2.435-1.964V5.9c0-1.966.6-2.853,4.671-3.135a4.191,4.191,0,0,0,0-1.824Zm56.2,0-10.81,22.507L114.425.94h-9.451c-1.952,0-2.236,1.017-1.952,2.1,4.638.133,4.921.651,4.771,2.152L105.874,27.18c-.133,1.968-.567,2.9-5.705,3.187a4.2,4.2,0,0,0,0,1.818h15.348c1.317,0,1.5-.751,1.167-2.1h-2.519c-4.955,0-4.955-.469-4.822-2.3l1.5-21.021L123.773,32.3c1.067,0,1.451-.284,2.3-1.968L137.313,6.744l2.1,20.4c.235,2.285-.42,2.8-4.349,3.037l-2.529.131a3.084,3.084,0,0,0,0,1.818h16.515c1.312,0,1.451-.751,1.312-2.1-3.6-.469-4.353-.6-4.494-2.1L143.619,5.09c-.136-1.351.145-2.1,4.488-2.386a2.882,2.882,0,0,0,0-1.819Zm22.368,0c-1.966,0-2.246.887-1.966,2.1h2.245c1.967,0,2.575.284,2.575,1.968v21.43c0,3.043-1.03,3.651-5.569,3.931a4.486,4.486,0,0,0,0,1.825h22.82a65.069,65.069,0,0,1,2.436-8.424c.482-1.394-.134-1.967-1.4-1.967l-.149.005-1.32,2.9c-1.969,4.213-2.436,4.448-5.905,4.448h-3c-1.32,0-2.119-.422-2.119-1.968V6.509c0-3.042.935-3.463,5.845-3.746a4.224,4.224,0,0,0,0-1.823Zm30.322,0c-2.059,0-2.246.887-2.059,2.1h2.236c2.1,0,2.52.284,2.52,1.968v21.62c0,3.133-.9,3.462-5.857,3.742a3.1,3.1,0,0,0,0,1.824h25.824a66.486,66.486,0,0,1,2.436-8.424c.449-1.351-.15-1.969-1.4-1.969l-.15.005-1.317,2.9c-1.969,4.211-2.436,4.448-5.907,4.448h-4.02c-3.185,0-3.6-.7-3.6-2.386V18.531h4.91c1.219,0,1.827.422,2.435,4.07a1.99,1.99,0,0,0,.807.159,2.12,2.12,0,0,0,.835-.15c-.138-3.037-.138-6.273,0-9.208.1-1.451-.417-1.769-1.35-1.769h-.562l-.318,2.386c-.146,1.219-.427,1.685-1.828,1.685h-4.915V3.678h7.491c2.572,0,3.553.751,4.348,3.6l.618,2.1a2.049,2.049,0,0,0,.322.018c1.251,0,1.719-.784,1.5-2.118-.324-2-.6-4.2-.742-6.306ZM223.176.8c-1.918.14-2.247,1.028-1.918,2.245H223.5c1.918,0,2.576.284,2.576,2.118v21.62c0,2.853-.936,3.319-5.01,3.6a4.887,4.887,0,0,0,0,1.835h14.741c1.359,0,1.5-.751,1.359-2.1h-2.383c-2.436,0-2.856-.468-2.856-1.818V21.427h3.138c2.851,0,2.946.151,4.118,2.253a21.418,21.418,0,0,0,4.448,5.389A14.374,14.374,0,0,0,254.3,33.005c4.972,0,6.139-1.219,5.722-2.853-4.07,0-6.122-.417-12.294-5.389-1.769-1.45-5.29-4.671-5.29-4.671,3.886-1.635,6.323-4.822,6.323-8.741,0-6.406-4.955-10.661-13.945-10.661-6.54,0-9.359,0-11.6.184M231.978,3.4h1.6c5.29,0,9.026,1.969,9.026,8.281s-3.74,7.069-8.374,7.069h-2.247Z" transform="translate(0.006)"/>
</svg>
