<svg id="Gruppe_89" data-name="Gruppe 89" xmlns="http://www.w3.org/2000/svg" width="131.685" height="28.826" viewBox="0 0 131.685 28.826">
  <g id="Gruppe_88" data-name="Gruppe 88" transform="translate(0 0)">
    <path id="Pfad_350" data-name="Pfad 350" d="M90.77,290.322h2.725v4.185H90.77v10.73H85.04v-10.73H82.9v-4.185H85.04v-.674a11.432,11.432,0,0,1,.2-2.008,4.03,4.03,0,0,1,.737-1.791,3.81,3.81,0,0,1,1.517-1.123,7.4,7.4,0,0,1,2.858-.428,38.945,38.945,0,0,1,4.368.351l-.632,3.455a10.719,10.719,0,0,0-1.657-.169,1.843,1.843,0,0,0-1.109.26,1.435,1.435,0,0,0-.478.822A7.454,7.454,0,0,0,90.77,290.322Z" transform="translate(-82.905 -284.297)" fill="#161615"/>
    <path id="Pfad_351" data-name="Pfad 351" d="M129.226,315.04a7.463,7.463,0,0,1,2.3-5.625,8.607,8.607,0,0,1,6.222-2.212q4.48,0,6.769,2.6a8.122,8.122,0,0,1-.443,10.793,8.723,8.723,0,0,1-6.313,2.2,8.856,8.856,0,0,1-5.814-1.826A7.329,7.329,0,0,1,129.226,315.04Zm5.73-.014a4.5,4.5,0,0,0,.808,2.949,2.646,2.646,0,0,0,4.059.014,4.655,4.655,0,0,0,.794-3.02,4.4,4.4,0,0,0-.8-2.886,2.493,2.493,0,0,0-1.98-.948,2.589,2.589,0,0,0-2.064.962A4.453,4.453,0,0,0,134.956,315.026Z" transform="translate(-117.724 -301.515)" fill="#161615"/>
    <path id="Pfad_352" data-name="Pfad 352" d="M199.243,308.56h6.783l2.366,4.157,2.76-4.157h6.306l-5.088,7.107,5.453,7.809h-6.671l-2.76-4.8-3.237,4.8h-6.193l5.417-7.809Z" transform="translate(-170.143 -302.535)" fill="#161615"/>
    <path id="Pfad_353" data-name="Pfad 353" d="M276.5,308.56h6.783l2.366,4.157,2.76-4.157h6.306l-5.088,7.107,5.453,7.809h-6.671l-2.76-4.8-3.237,4.8h-6.193l5.417-7.809Z" transform="translate(-228.218 -302.535)" fill="#161615"/>
    <path id="Pfad_354" data-name="Pfad 354" d="M375.3,323.475h-5.337v-2.416a7.865,7.865,0,0,1-2.409,2.121,6.411,6.411,0,0,1-2.984.632,4.86,4.86,0,0,1-3.7-1.411,6.117,6.117,0,0,1-1.341-4.347V308.56h5.744v8.2a3.013,3.013,0,0,0,.52,1.994,1.843,1.843,0,0,0,1.461.59,2.083,2.083,0,0,0,1.678-.786,4.538,4.538,0,0,0,.653-2.823V308.56H375.3Z" transform="translate(-290.84 -302.535)" fill="#161615"/>
  </g>
  <path id="Pfad_355" data-name="Pfad 355" d="M449.837,301.815s-1.128,6.339-3.6,7.946c-.31.2-.212,1.636.466,1.754,1.636.285,5.518-.771,6.177.854,0,0,2.049,4.594.869,5.9,0,0-3.787,4.532-4.842,4.718,0,0-3.6.931-2.483,2.359,0,0,.807.683,2.669-.248l9.126-7.139s2.049-1.738,2.111-.124l-.124,4.842L463,326.026s2.3.435.931-1.924a3.242,3.242,0,0,1-1.117-2.669v-4.656l4.1-1.242,6.022,2.669-1.49,4.221s-2.049,1.428-.745,2.235a2.368,2.368,0,0,0,2.731-1.862s.683-2.918,1.428-1.862c0,0,1.614,2.421,2.669.621l-1.614-2.421-.559-2.173-1.366-1.242.559-4.842,6.332,4.408s6.27,1.242,6.642-1.3-1.179-4.1-3.725-4.842a33.57,33.57,0,0,0-5.773-.993l-3.1-.062s-5.4-3.166-11.236-.745c0,0-4.47,1.428-6.518-.993l-3.352-4.842s-1.676,2.483-2.731,1.552A7.527,7.527,0,0,1,449.837,301.815Z" transform="translate(-355.889 -297.232)" fill="#161615"/>
</svg>
