<svg xmlns="http://www.w3.org/2000/svg" width="135.083" height="109.204" viewBox="0 0 135.083 109.204">
  <g id="g26" transform="translate(0.2 -0.389)">
    <path id="path2" d="M19.163,67.9V58.659c5.755,0,7.875-.3,8.935,6.815H28.7V57.6H12.8v1.06h2.726V79.1H12.5v1.06H28.855V71.835H28.1c-.757,6.36-2.423,7.269-6.966,7.269h-2.12V69.261h1.212c1.969,0,3.18,1.213,3.635,4.695h.757v-10.3h-.757s-.151,4.39-3.635,4.39h-1.06Z" transform="translate(6.533 29.428)"/>
    <path id="path4" d="M19.184,68.408H10.249v1.059h3.029v7.271c-.454,1.816-3.332,2.573-4.089,2.573-5.755,0-5.3-8.329-5.3-10.6,0-1.969-.151-10.6,5.3-10.6,3.937,0,5.906,3.786,6.663,7.271h.606V57.2a28.082,28.082,0,0,1-2.726,1.814S12.521,57.2,9.038,57.2C2.374,57.2-.2,63.863-.2,68.558c0,4.24,1.969,11.659,9.238,11.659a5.74,5.74,0,0,0,4.695-2.423l2.877,2.272V69.314h2.423V68.4h.151Z" transform="translate(0 29.223)"/>
    <path id="path6" d="M98.115,71.888c-.757,6.363-2.423,7.271-6.966,7.271h-.3V58.866h2.876V57.807H84.334v1.059h2.877V79.31H84.939L76.61,57.2H75.4s-6.966,19.988-6.966,20.141c0,0-.456,1.667-1.666,1.969-1.062,0-.91-.454-.91-.757V74.615c0-1.06-.153-3.332-1.06-4.392-1.212-1.212-3.18-1.212-3.18-1.363,0,0,5.149-1.059,5.149-5.9,0-3.483-2.425-5.147-6.362-5.3H49.2v1.06h2.876V79.16H49.2v1.059h9.238v-1.06H55.56V69.315h3.786c6.663.606-1.213,10.9,7.572,10.9H72.37V79.159c-.3,0-2.272,0-2.423-1.363C69.8,76.737,71.31,73.1,71.31,73.1h7.572s2.272,6.058,2.423,6.058H78.73v1.059H99.175V71.888h-1.06Zm-38.92-3.633H55.56V58.866h4.695c2.727.456,2.877,3.635,2.877,4.543,0,2.421-1.06,4.846-3.937,4.846m12.721,3.939L75.247,62.5l3.483,9.692Z" transform="translate(25.41 29.223)"/>
    <path id="path8" d="M50.853,58.56c5.753,0,8.025-.3,8.935,6.815h.6V57.5H37.375v1.06h.606c.757,0,2.726,0,2.877,1.816h0V73.4L30.106,57.5H24.2v1.06h.909c1.212,0,2.726,0,2.877,1.816V77.034c0,1.667-2.423,2.272-3.483,2.272h0v.757h8.026v-.757c-1.06,0-3.483-.6-3.483-2.272V62.346c4.24,6.058,12.266,17.717,12.418,17.717h.454V60.376c.151-1.666,1.969-1.816,2.877-1.816H47.37V79H44.341v1.059H60.7V71.734h-.757C59.182,78.1,57.516,79,52.973,79h-2.12V69.161h1.212c1.969,0,3.18,1.212,3.635,4.695h.757v-10.3H55.7s-.151,4.39-3.635,4.39H51V58.56Z" transform="translate(12.551 29.377)"/>
    <path id="polygon10" d="M82.8,57.5v1.212h2.877V79H82.8v1.059h9.238V79H89.009V58.712h3.029V57.5Z" transform="translate(42.694 29.377)"/>
    <path id="path12" d="M110.247,72.945l2.876-1.059h0c4.09-1.667,4.7-2.727,4.392-5.453v-10.9c3.029,7.875,6.058,13.327,11.964,13.327a16.878,16.878,0,0,0,2.574-.3l2.272-.453-1.667-1.819a12.213,12.213,0,0,1-2.119-3.029c-.3-.451-.453-.907-.756-1.361-1.361-2.272-4.7-3.029-7.419-1.817-1.213-2.423-2.425-5.6-3.939-9.541l-.3-.757c-.3-.606-.454-1.212-.757-1.817v-.151h0c-.909-2.12-1.969-4.089-3.029-6.058a28.615,28.615,0,0,0-3.33-4.695,20.717,20.717,0,0,0-12.268-6.815,65.881,65.881,0,0,0-9.086-.909,8.648,8.648,0,0,1-1.969-.151c-1.363-.151-4.242-.3-7.118-.606-1.969-.151-3.786-.3-5.3-.454a4.153,4.153,0,0,0,.153-1.363,5.624,5.624,0,0,0-.153-1.666h19.99c5.149,0,8.935-2.272,11.055-6.815a11.7,11.7,0,0,0,11.055-6.815h.757q7.951,0,11.358-7.269l.757-1.363H62.7A10.27,10.27,0,0,0,53,10.249V10.4A14.855,14.855,0,0,0,47.1,2.829C43.311.557,39.071-.2,35.739.86a11.868,11.868,0,0,0-3.18,1.363,13.071,13.071,0,0,0-2.726,2.423,18.227,18.227,0,0,0-2.272,3.635,2.571,2.571,0,0,0-.909.909L25.9,10.7v.151A22.466,22.466,0,0,1,22.867,15.7a3.841,3.841,0,0,0-.909,2.726,3.454,3.454,0,0,0,.909,1.817h0a2.922,2.922,0,0,0-.454,1.514,3.276,3.276,0,0,0,3.483,3.18,6.32,6.32,0,0,0,3.786-1.514,8.3,8.3,0,0,1,2.272-1.212,1.035,1.035,0,0,1,1.06,1.06c0,1.514-1.817,2.272-3.18,2.272l-2.726.3c-1.969.151-2.877,1.212-2.877,2.12a2.55,2.55,0,0,0,.757,1.817l.151.151.757.606-3.18,4.846a11.321,11.321,0,0,0-6.663-3.18,4.686,4.686,0,0,0-3.483,1.212,2.659,2.659,0,0,0-.606.757h0a6.051,6.051,0,0,0-5,2.574c-1.06,1.514-.606,4.089.606,6.058L0,44.929V80.062H134.78V73.095H110.247ZM127.662,63.4a8.112,8.112,0,0,0,.757,1.211,13.921,13.921,0,0,1,.909,1.514c-2.12-.151-3.786-1.363-5.149-3.483a2.928,2.928,0,0,1,3.483.757M98.435,33.419a17.89,17.89,0,0,1,10.6,5.755,25.889,25.889,0,0,1,1.666,2.12c-7.268-.909-9.843-1.969-13.931-8.178a6.452,6.452,0,0,1,1.664.3m-3.18-10.6H81.474a12.623,12.623,0,0,0,2.876-3.937h18.628c-1.514,2.726-4.089,3.937-7.723,3.937m10.9-6.663H92.377a12,12,0,0,0,3.029-4.089h18.627c-1.514,2.726-4.09,4.089-7.876,4.089m1.062-10.449h18.475a8.9,8.9,0,0,1-7.723,3.635H104.189a13.873,13.873,0,0,0,3.029-3.635M32.1,6.312a11.641,11.641,0,0,1,1.969-1.817A5.909,5.909,0,0,1,36.5,3.435a10.72,10.72,0,0,1,4.392,0l-5,3.029c-.606,0-1.212-.151-1.817-.151a10.028,10.028,0,0,0-2.272.151c.151,0,.151,0,.3-.151M26.35,28.119a.326.326,0,0,1,.3-.3l2.423.151c2.877-.151,5.906-1.363,6.209-4.392,0-2.12-1.514-4.089-3.483-4.089a8.063,8.063,0,0,0-3.786,1.666,5.346,5.346,0,0,1-2.12,1.06.676.676,0,0,1-.606-.454v-.151l1.514-2.12-1.363-.909c-.3-.151-.757-.606-.757-.757s.151-.3.151-.454a11.179,11.179,0,0,0,1.817-2.423c.454-.606.606-.909,1.212-.909a1.194,1.194,0,0,1,1.212,1.212c0,.454.454.757,1.06.757s.909-.454,1.212-.757c0,0,1.363-1.212.606-1.817s-4.089.757-3.18-2.272l.3-.454c.3-.454,1.969-1.666,5.149-1.666a9.315,9.315,0,0,1,1.969.151h.454l6.966-4.24a.529.529,0,0,0,.151.3h0a5.966,5.966,0,0,1-3.029,5.755l-.909.454.606,3.18a3.976,3.976,0,0,0-3.029,3.635,11.879,11.879,0,0,0,.3,2.12,22.974,22.974,0,0,1,.454,3.18c0,3.332-4.543,5.452-8.329,5.3h-.151a9.593,9.593,0,0,1-3.18-.606c-.151.151-.151,0-.151-.151M9.086,38.417a3.484,3.484,0,0,1,3.332-1.363l1.212.151.454-1.06a3.31,3.31,0,0,1,.454-.757,2.261,2.261,0,0,1,1.514-.454c1.666,0,3.786,1.212,5.452,3.029a12.534,12.534,0,0,1,1.666,2.272c.151.151.151.3.3.454a2.179,2.179,0,0,1,.3.454c0,.151.909,1.363.909,1.514a23.107,23.107,0,0,0,1.666-2.423v-.151c-.151-.3-.454-.757-.606-1.06l-.151-.151h0a.529.529,0,0,1-.151-.3,4.713,4.713,0,0,0-.606-.909L28.47,31.9a12.372,12.372,0,0,0,2.12.151h.151c5.149,0,10.449-3.029,10.449-7.875V24.03a23.765,23.765,0,0,0-.454-3.635,13.5,13.5,0,0,1-.3-1.666c0-.606.757-1.212,1.817-1.212h1.666l-.757-4.24a8.757,8.757,0,0,0,3.635-7.118,12.516,12.516,0,0,1,4.543,8.783,13.073,13.073,0,0,1-.454,3.937l-.151.606h0A62.584,62.584,0,0,1,48.763,25.7l-.454,1.06,1.06.606c1.817,1.06,3.029,1.817,3.029,4.24,0,2.877-2.574,5-5,5.452l-3.483.606,2.877,1.969a3.384,3.384,0,0,1,1.514,2.726,3.234,3.234,0,0,1-3.332,3.18h-1.06l-.3.909c-1.06,3.332-2.12,5-5.755,5.452v-5l-.151-3.18-2.272,2.272A7.389,7.389,0,0,1,31.8,47.655V44.929l-15.9-4.24L10.3,42.2c-1.212-1.212-1.514-3.332-1.212-3.786M4.543,72.945l11.509-3.029,11.509,3.029Zm24.533-2.423L15.9,67.037,2.726,70.522V47.049L15.9,43.566l13.175,3.483Zm6.209-4.543c-1.212,1.666-1.363,4.087-.454,6.966H31.953V50.532a12.571,12.571,0,0,0,3.18-.909,16.687,16.687,0,0,1-.3,2.726c0,.3-.151.454-.151.757l-.3,1.666h1.666a15,15,0,0,0,5.755-1.06V63.1a.4.4,0,0,1-.454.456h-.454a6.016,6.016,0,0,0-5.6,2.421m30.288.607c-1.06,1.21-1.969,3.18-1.363,6.359H47.1a6.312,6.312,0,0,0,4.089-1.514A5.756,5.756,0,0,0,52.4,67.493c0-.151.151-.456,1.06-.909l1.514-.606-.909-1.363c-1.514-2.272-.757-7.116-.3-9.843h.151A41.27,41.27,0,0,0,67.39,52.349a25.989,25.989,0,0,0,3.179-1.06h0s1.213-.3,2.727-.757l5.6,9.239v.151c.606.757.606,1.363-.453,2.423l-2.726,3.027-4.543-.909h0a6.61,6.61,0,0,0-5.6,2.122m1.514,6.359c-.454-1.969-.3-3.483.606-4.543a3.889,3.889,0,0,1,3.182-1.212l5.3.91h.909l3.786-4.09h0c.606-.757,2.573-3.029.606-5.9l-5-8.179a13.027,13.027,0,0,1,2.423-.151h0a12.058,12.058,0,0,1,5.3,1.514c.3.757.91,1.817,1.363,3.029a57.165,57.165,0,0,1,2.727,5.9c.151.3.453,1.363-.757,2.727L77.991,73.095h-10.9Zm32.711,0H81.625l7.723-8.178c1.514-1.666,2.12-3.633,1.363-5.452a57.693,57.693,0,0,0-2.423-5.452c3.029,1.363,7.723,2.726,17.262,3.483,1.212.153,1.514.454,1.667,1.514l.453,4.089-5,1.059a4.647,4.647,0,0,0-3.635,3.029,7.532,7.532,0,0,0,.757,5.908m1.969-4.845a1.973,1.973,0,0,1,1.514-1.363l7.419-1.666-.6-6.665v-.151a4.3,4.3,0,0,0-4.24-3.786C92.527,53.409,89.5,51.441,86.168,49.32h0l-.151-.151A14.03,14.03,0,0,0,78.748,46.9a33.815,33.815,0,0,0-8.935,1.666c-1.21.3-2.272.757-3.33,1.06C62.243,50.986,58.76,52.2,52.7,51.895h-1.06l-.3,1.06c-.151.757-1.969,7.572-.3,11.811a3.394,3.394,0,0,0-1.514,2.727c0,1.514-.3,1.816-.454,1.969-.757.757-3.029.757-5,.757h-.757l-.454.6a5.418,5.418,0,0,1-5.453,1.667q-1.136-3.407,0-5a4.2,4.2,0,0,1,3.332-1.363h.454a3.2,3.2,0,0,0,3.18-3.18V50.986a12.7,12.7,0,0,0,1.363-2.877A6.025,6.025,0,0,0,50.883,42.2a5.6,5.6,0,0,0-.909-3.18,8.387,8.387,0,0,0,5-7.42,6.365,6.365,0,0,0-3.483-6.058c.454-1.363,1.212-3.635,1.817-6.058l2.272-8.329a7.368,7.368,0,0,1,6.966-5.452h41.191a8.9,8.9,0,0,1-7.723,3.635H71.326l-1.361,2.726H92.377a8.913,8.913,0,0,1-8.026,4.089h-16.2l-1.363,2.726H81.171c-1.817,2.726-4.24,3.937-7.875,3.937H64.513L63.15,25.545h9.238c.151.151.3.606.3,1.666a3.233,3.233,0,0,1-3.33,3.18,4.556,4.556,0,0,1-2.12-.606c-.454-.151-.757-.3-1.212-.454L63.908,31.3c.454.151.757.3,1.212.454h0a10.733,10.733,0,0,0,4.24,1.212,6.739,6.739,0,0,0,4.39-1.817c1.514.151,4.089.3,6.662.454,3.029.3,5.756.454,7.271.606a10,10,0,0,1,2.12.151c1.21,0,2.423.151,3.482.151,5.6,9.086,8.482,10.3,19.386,11.661a39.236,39.236,0,0,1,2.12,4.392V67.644a10.507,10.507,0,0,1-2.576,1.363l-9.236,3.786c-1.212-1.664-1.666-3.332-1.212-4.693" transform="translate(0.103 0)"/>
    <path id="polygon14" d="M11.5,34.977l8.783,2.272V34.372L11.5,32.1Z" transform="translate(6.018 16.312)"/>
    <path id="polygon16" d="M12.583,32.1,3.8,34.372v2.877l8.783-2.272Z" transform="translate(2.058 16.312)"/>
    <path id="polygon18" d="M12.583,35.9,3.8,38.17v2.879l8.783-2.272Z" transform="translate(2.058 18.266)"/>
    <path id="polygon20" d="M11.5,38.777l8.783,2.272V38.17L11.5,35.9Z" transform="translate(6.018 18.266)"/>
    <path id="polygon22" d="M11.5,42.579l8.783,2.272V41.972L11.5,39.7Z" transform="translate(6.018 20.221)"/>
    <path id="polygon24" d="M12.583,39.7,3.8,41.972V44.85l8.783-2.272Z" transform="translate(2.058 20.221)"/>
  </g>
</svg>
