<svg xmlns="http://www.w3.org/2000/svg" width="416.117" height="341.375" viewBox="0 0 416.117 341.375">
  <g id="Gruppe_70" data-name="Gruppe 70" transform="translate(7.197 -259.396)">
    <g id="Gruppe_62" data-name="Gruppe 62" transform="translate(1.633 261.487)">
      <path id="Pfad_299" data-name="Pfad 299" d="M505.746,166.486V134.07l-5.184-1.2v-5.41c5.259-9.918-5.777-10.631-5.777-10.631v-8.275c-3.043-1.043-3.314-9.119-3.314-9.119.3,6.836-2.329,9.542-2.329,9.542v8.414c-.125.009-.237.025-.357.038-9.183.9-3.776,10.556-3.776,10.556v5.56l-5.184,1.8v6.085l-90.161-14.49V115.286l-12.171-13.749-1.409,2.113-8.508,12.763V123.4l-47-7.1V103.566l-3.043-.676V98.381l-10.2-9.635-9.3,9.3v5.522l-2.931.789v13.862l-17.7,6.1-10.251,3.534v-5.465l-.14-.021v-.053l-3.279-.469v-2.291l-3.344-.15s1.24-6.029-3.775-7.777v-5.8s.845-4.4-2.593-4.4h-.563a3.436,3.436,0,0,0-.571.046v.053c-2.767.466-2.02,4.35-2.02,4.35v5.8c-5.016,1.746-3.776,7.776-3.776,7.776l-1.071.62v1.916l-2.874.958v28.529" transform="translate(-147.072 -88.746)" fill="none" stroke="#e71d36" stroke-miterlimit="10" stroke-width="3"/>
      <path id="Pfad_300" data-name="Pfad 300" d="M139.792,204.217,185.028,178.7l53.355-18.559,48.136-18.669,64.955,39.547,17.355,3.9,159.53-7.957,10.439,26.1" transform="translate(-139.792 -99.948)" fill="none" stroke="#e71d36" stroke-miterlimit="10" stroke-width="3"/>
    </g>
    <path id="Pfad_303" data-name="Pfad 303" d="M17884.385,314.484l131.492-55.617,52.32,28.582h88.5l78.809-8.429,63.4,58.2" transform="translate(-17890.998 87.883)" fill="none" stroke="#e71d36" stroke-width="3"/>
    <path id="Pfad_304" data-name="Pfad 304" d="M17884.385,314.484l131.492-55.617,52.32,28.582h88.5l78.809-8.429,63.4,58.2" transform="translate(-17890.998 129.031)" fill="none" stroke="#e71d36" stroke-width="3"/>
    <path id="Pfad_305" data-name="Pfad 305" d="M17884.385,314.484l131.492-55.617,52.32,28.582h88.5l78.809-8.429,63.4,58.2" transform="translate(-17890.998 168.932)" fill="none" stroke="#e71d36" stroke-width="3"/>
    <path id="Pfad_306" data-name="Pfad 306" d="M17884.385,314.484l131.492-55.617,52.32,28.582h88.5l78.809-8.429,63.4,58.2" transform="translate(-17890.998 216.314)" fill="none" stroke="#e71d36" stroke-width="3"/>
    <path id="Pfad_307" data-name="Pfad 307" d="M17884.385,314.484l131.492-55.617,52.32,28.582h88.5l78.809-8.429,63.4,58.2" transform="translate(-17890.998 262.449)" fill="none" stroke="#e71d36" stroke-width="3"/>
  </g>
</svg>
