<svg id="Gruppe_44" data-name="Gruppe 44" xmlns="http://www.w3.org/2000/svg" width="105.452" height="54.207" viewBox="0 0 105.452 54.207">
  <path id="Pfad_264" data-name="Pfad 264" d="M194.446,148.83a5.344,5.344,0,1,1,3.526-9.353,27.1,27.1,0,0,0-53.206-.454,19.563,19.563,0,1,1,0,10.813,27.107,27.107,0,0,0,53.527-2.645A5.324,5.324,0,0,1,194.446,148.83Z" transform="translate(-144.766 -117.326)" fill="#020000"/>
  <g id="Gruppe_43" data-name="Gruppe 43" transform="translate(54.502 20.061)">
    <path id="Pfad_265" data-name="Pfad 265" d="M456.587,234.434a4.125,4.125,0,1,1-4.126-4.126A4.131,4.131,0,0,1,456.587,234.434Zm-4.126-6.1a6.1,6.1,0,1,0,6.1,6.1A6.1,6.1,0,0,0,452.461,228.338Z" transform="translate(-446.363 -228.338)" fill="#020000"/>
  </g>
  <path id="Pfad_266" data-name="Pfad 266" d="M452.52,257.233a5.9,5.9,0,0,0,0-2.738,4.917,4.917,0,0,0,0,2.738Z" transform="translate(-396.746 -229.707)" fill="#020000"/>
  <path id="Pfad_267" data-name="Pfad 267" d="M396.113,237.1a4.1,4.1,0,1,1-.014-5.245,7.981,7.981,0,0,1,.965-1.934,6.149,6.149,0,1,0,.046,9.086,7.994,7.994,0,0,1-.936-1.792C396.154,237.177,396.132,237.14,396.113,237.1Z" transform="translate(-343.071 -208.277)" fill="#020000"/>
  <path id="Pfad_268" data-name="Pfad 268" d="M533,234.062c-.224-3.193-2.417-5.724-5.666-5.724-3.226,0-5.4,2.5-5.658,5.657l-.016,6.449h.584V234.1c.206-2.89,2.148-5.182,5.09-5.182,2.959,0,4.912,2.315,5.1,5.227h0v6.3h.583Z" transform="translate(-453.554 -208.277)" fill="#020000"/>
  <path id="Pfad_269" data-name="Pfad 269" d="M169.266,240.425l-.014-6.363c-.224-3.193-2.413-5.724-5.655-5.724a5.515,5.515,0,0,0-5.366,4.163,5.52,5.52,0,0,0-5.371-4.163c-3.22,0-5.391,2.5-5.648,5.657l-.015,6.43h.583V234.1c.206-2.89,2.144-5.182,5.081-5.182,2.953,0,4.9,2.315,5.087,5.227h0v.369l-.015,5.913h.6l-.014-6.334c.207-2.887,2.145-5.175,5.081-5.175,2.952,0,4.9,2.315,5.085,5.227h0v6.282Z" transform="translate(-146.758 -208.277)" fill="#020000"/>
  <path id="Pfad_270" data-name="Pfad 270" d="M595.579,228.338a6.16,6.16,0,1,0,5.187,9.466h-.7a5.577,5.577,0,1,1,1.083-3.563h-9.615v.584l9.612-.013s0,0,0,.007h.58c.006-.107.016-.213.016-.322A6.166,6.166,0,0,0,595.579,228.338Z" transform="translate(-509.066 -208.277)" fill="#020000"/>
  <path id="Pfad_271" data-name="Pfad 271" d="M347.037,260.574v.584l5.807-.011v-.572Z" transform="translate(-310.484 -234.688)" fill="#020000"/>
  <path id="Pfad_272" data-name="Pfad 272" d="M672.414,240.612c.117-.014.233-.033.348-.053s.226-.045.337-.072c.079-.019.158-.039.236-.061s.183-.052.273-.082c.054-.018.105-.039.158-.058q.258-.094.5-.209l.117-.057a6.154,6.154,0,0,0,.919-.56h0a6.222,6.222,0,0,0,.721-.612l-.009-.006a6.235,6.235,0,0,0,.836-1.037h-.7a5.671,5.671,0,0,1-.817.886l-.083.072c-.071.06-.143.119-.218.176-.025.02-.053.038-.079.057q-.191.141-.393.265l-.151.089q-.159.091-.324.171c-.066.032-.133.065-.2.094s-.144.061-.217.089-.161.059-.242.087q-.147.049-.3.091-.116.031-.232.058c-.07.016-.14.033-.211.045-.123.023-.248.041-.374.056-.071.008-.143.014-.214.02-.094.007-.189.012-.284.014-.048,0-.1,0-.146,0a5.583,5.583,0,0,1-5.4-4.21v-.008q-.064-.254-.1-.516c0-.023,0-.046-.007-.069-.021-.147-.037-.3-.046-.447l9.429-.012v-.573H666.09l0-5.907h-.584l0,6.165c0,.1.01.2.015.3a6.162,6.162,0,0,0,6.144,5.862c.054,0,.107-.007.161-.008.113,0,.226-.008.337-.017C672.25,240.629,672.332,240.621,672.414,240.612Z" transform="translate(-571.405 -208.277)" fill="#020000"/>
  <path id="Pfad_273" data-name="Pfad 273" d="M288.147,231.542h-.584V237.5c-.206,2.891-2.148,5.182-5.091,5.182-2.957,0-4.912-2.314-5.093-5.227h0v-5.917h-.584l.014,6c.225,3.191,2.416,5.723,5.665,5.723a5.436,5.436,0,0,0,5.091-3.379v3.229c-.206,2.89-2.148,5.183-5.091,5.183a4.915,4.915,0,0,1-4.733-3.454h-.6a5.505,5.505,0,0,0,5.332,4.033c3.226,0,5.4-2.5,5.658-5.658l.016-7.131h-.012Z" transform="translate(-252.935 -210.902)" fill="#020000"/>
</svg>
