<svg xmlns="http://www.w3.org/2000/svg" width="239.705" height="76.783" viewBox="0 0 239.705 76.783">
  <g id="layer1" transform="translate(-579.262 -1108.019)">
    <path id="path2654" d="M618.105,1108.019a37.884,37.884,0,0,0-18.777,70.783l-20.067-.065v6.065h36v-6.775a32.686,32.686,0,1,1,4.71,0v6.775h35.811v-5.936H636.882a37.925,37.925,0,0,0-18.776-70.847ZM592.231,1132.8v26.584h5.678V1140.99l10.711,18.389h35.746V1132.8h-5.549v18.389L627.332,1132.8Zm71.879,0v26.584H708.18V1153.9h-17.1v-5.485h17.1v-5.1h-17.1v-4.969h17.1V1132.8H664.111Zm57.426,0v26.584h27.036v-10.969h17.1v-5.1h-17.1v-4.969h17.1V1132.8H721.537Zm53.361,0v26.584h27.165v-10.969h16.905v-5.033H802.062v-5.033h16.905V1132.8Z"/>
  </g>
</svg>
