<svg xmlns="http://www.w3.org/2000/svg" width="497.618" height="69.974" viewBox="0 0 497.618 69.974">
  <g id="Technische_Hochschule_Nürnberg_Georg_Simon_Ohm_logo" transform="translate(-4.674 -3.479)">
    <path id="path6040" d="M183.9,118.693H177.22v1.374h5.362c.066,3.581-1.962,6.217-5.451,6.217-4.169,0-5.933-3.749-5.933-7.45s1.764-7.453,5.933-7.453a5.02,5.02,0,0,1,5.078,4.248h1.5a6.288,6.288,0,0,0-6.574-5.619c-4.963,0-7.433,4.2-7.433,8.824s2.471,8.821,7.433,8.821a5.638,5.638,0,0,0,5.451-3.435h.048l.2,3.082h1.077v-8.609h0ZM186.8,127.3h10.981v-1.375h-9.485v-6.693h8.781v-1.371h-8.781v-6.125h9.376v-1.371H186.8Zm12.243-8.467c0,4.625,2.467,8.821,7.433,8.821,4.942,0,7.41-4.2,7.41-8.821s-2.467-8.824-7.41-8.824c-4.966,0-7.433,4.2-7.433,8.824m1.5,0c0-3.7,1.764-7.453,5.937-7.453,4.146,0,5.913,3.749,5.913,7.453s-1.767,7.45-5.913,7.45c-4.173,0-5.937-3.749-5.937-7.45m15.688,8.467h1.5V119.78h5.692c2.848-.116,3.022,2.517,3.155,4.889a7.194,7.194,0,0,0,.419,2.633h1.651c-.661-.856-.661-3.182-.726-4.341-.109-2.018-.7-3.535-2.755-3.819V119.1c2.029-.426,3.062-2.183,3.062-4.318,0-3.062-2.18-4.41-4.783-4.41h-7.212V127.3Zm1.5-15.564h5.6a3.073,3.073,0,0,1,3.4,3.37,3.229,3.229,0,0,1-3.4,3.3h-5.6v-6.67Zm26.67,6.954H237.71v1.374h5.362c.066,3.581-1.962,6.217-5.451,6.217-4.169,0-5.933-3.749-5.933-7.45s1.764-7.453,5.933-7.453a5.02,5.02,0,0,1,5.078,4.248h1.5a6.287,6.287,0,0,0-6.574-5.619c-4.962,0-7.433,4.2-7.433,8.824s2.471,8.821,7.433,8.821a5.638,5.638,0,0,0,5.451-3.435h.048l.2,3.082h1.077v-8.609h0Zm8.233,3.036c-.177,4.129,2.553,5.926,6.283,5.926,5.583,0,6.023-3.674,6.023-4.836,0-2.775-1.85-3.819-4.08-4.46l-3.838-1.017c-1.282-.337-2.382-1-2.382-2.59,0-2.514,1.9-3.369,3.948-3.369a3.974,3.974,0,0,1,4.3,3.891h1.5c.034-3.462-2.712-5.263-5.824-5.263-4.434,0-5.425,3.1-5.425,4.764,0,2.633,1.7,3.584,3.551,4.08l3.509.925c1.457.383,3.244,1.143,3.244,3.066,0,2.464-2.517,3.439-4.172,3.439-2.868,0-5.207-1.067-5.141-4.555h-1.5Zm14.8,5.573h1.5V110.367h-1.5Zm4.744,0h1.5V112.667h.042l5.408,14.635h1.411l5.385-14.638h.042V127.3h1.5V110.367h-2.2l-5.428,14.85-5.451-14.85h-2.2V127.3h0Zm17.582-8.467c0,4.625,2.467,8.821,7.433,8.821,4.942,0,7.41-4.2,7.41-8.821s-2.467-8.824-7.41-8.824c-4.966,0-7.433,4.2-7.433,8.824m1.5,0c0-3.7,1.764-7.453,5.937-7.453,4.149,0,5.914,3.749,5.914,7.453s-1.764,7.45-5.914,7.45c-4.173,0-5.937-3.749-5.937-7.45m15.665,8.467h1.5V112.974h.045l9.178,14.328h1.675V110.367h-1.5v14.324h-.042l-9.181-14.324h-1.675V127.3Zm20.846-8.467c0,4.625,2.471,8.821,7.433,8.821,4.945,0,7.413-4.2,7.413-8.821s-2.467-8.824-7.413-8.824c-4.963,0-7.433,4.2-7.433,8.824m1.5,0c0-3.7,1.764-7.453,5.934-7.453,4.149,0,5.913,3.749,5.913,7.453s-1.764,7.45-5.913,7.45c-4.169,0-5.934-3.749-5.934-7.45m15.686,8.467h1.5v-8.209H355.8V127.3h1.5V110.367h-1.5v7.354h-9.356v-7.354h-1.5Zm15.487,0h1.5V112.667h.045l5.4,14.635h1.41l5.385-14.638h.045V127.3h1.5V110.367h-2.2l-5.428,14.85-5.451-14.85h-2.2V127.3h0Z" transform="translate(-83.964 -54.203)"/>
    <path id="path6044" d="M168.346,59.934h4.876V74.308h2.692V59.934h4.9V57.374H168.346ZM182.5,74.308h11.236V71.751h-8.543V66.789h7.767V64.374h-7.767v-4.44h8.391V57.374H182.5V74.308Zm26.571-11.55c-.321-3.654-3.06-5.765-6.535-5.788-4.615,0-7.374,4.03-7.374,8.871s2.759,8.873,7.374,8.873c3.734,0,6.343-2.8,6.558-6.855h-2.63c-.215,2.467-1.533,4.437-3.928,4.437-3.3,0-4.681-3.2-4.681-6.455s1.381-6.452,4.681-6.452c2.246,0,3.389,1.424,3.842,3.37h2.693Zm2.313,11.55h2.692V66.67h7.013v7.638h2.692V57.374h-2.692v6.739H214.07V57.374h-2.692V74.308Zm15.421,0h2.564V61.857h.066l7.013,12.451h2.845V57.374h-2.564V69.851h-.045l-7.034-12.478H226.8V74.308Zm15.573,0h2.692V57.374h-2.692Zm4.962-5.643c.064,4.2,2.907,6.049,6.425,6.049,3.066,0,6.125-1.516,6.125-5.312a4.454,4.454,0,0,0-3-4.318c-.8-.264-4.209-1.235-4.444-1.308a2.2,2.2,0,0,1-1.837-2.18c0-1.708,1.576-2.206,2.828-2.206,1.857,0,3.195.806,3.324,2.99h2.692c0-3.535-2.692-5.408-5.907-5.408-2.785,0-5.63,1.589-5.63,4.979a4.216,4.216,0,0,0,3.406,4.295c2.114.644,3.518.952,4.6,1.4a2.006,2.006,0,0,1,1.275,2.085c0,1.282-.886,2.564-3.261,2.564-2.157,0-3.9-1.021-3.9-3.631Zm27.886-5.907c-.324-3.654-3.059-5.765-6.534-5.788-4.615,0-7.374,4.03-7.374,8.871s2.759,8.873,7.374,8.873c3.733,0,6.343-2.8,6.558-6.855h-2.63c-.215,2.467-1.533,4.437-3.928,4.437-3.3,0-4.681-3.2-4.681-6.455s1.381-6.452,4.681-6.452c2.246,0,3.389,1.424,3.842,3.37h2.693Zm2.313,11.55h2.692V66.67h7.013v7.638h2.692V57.374h-2.692v6.739h-7.013V57.374h-2.692Zm15.53,0H304.3V71.751h-8.54V66.789h7.764V64.374h-7.764v-4.44h8.391V57.374H293.064V74.308Zm19.3,0h2.7V66.67h7.01v7.638h2.7V57.374h-2.7v6.739h-7.01V57.374h-2.7Zm22.088-17.337c-4.618,0-7.377,4.03-7.377,8.871s2.758,8.873,7.377,8.873,7.374-4.03,7.374-8.873-2.759-8.871-7.374-8.871m0,2.418c3.3,0,4.681,3.2,4.681,6.452s-1.381,6.455-4.681,6.455-4.684-3.2-4.684-6.455,1.38-6.452,4.684-6.452m22.818,3.37c-.324-3.654-3.059-5.765-6.534-5.788-4.615,0-7.374,4.03-7.374,8.871s2.758,8.873,7.374,8.873c3.733,0,6.342-2.8,6.558-6.855h-2.63c-.214,2.467-1.533,4.437-3.928,4.437-3.3,0-4.682-3.2-4.682-6.455s1.381-6.452,4.682-6.452c2.246,0,3.389,1.424,3.842,3.37h2.693Zm2.313,11.55h2.692V66.67h7.014v7.638h2.692V57.374h-2.692v6.739h-7.014V57.374h-2.692Zm14.6-5.643c.064,4.2,2.907,6.049,6.425,6.049,3.066,0,6.125-1.516,6.125-5.312a4.454,4.454,0,0,0-3-4.318c-.8-.264-4.206-1.235-4.443-1.308a2.2,2.2,0,0,1-1.837-2.18c0-1.708,1.576-2.206,2.828-2.206,1.857,0,3.195.806,3.324,2.99H386.3c0-3.535-2.692-5.408-5.907-5.408-2.785,0-5.63,1.589-5.63,4.979a4.216,4.216,0,0,0,3.406,4.295c2.114.644,3.518.952,4.6,1.4a2.006,2.006,0,0,1,1.275,2.085c0,1.282-.886,2.564-3.261,2.564-2.157,0-3.9-1.021-3.9-3.631Zm27.886-5.907c-.324-3.654-3.059-5.765-6.534-5.788-4.615,0-7.374,4.03-7.374,8.871s2.759,8.873,7.374,8.873c3.733,0,6.343-2.8,6.558-6.855h-2.63c-.214,2.467-1.533,4.437-3.928,4.437-3.3,0-4.681-3.2-4.681-6.455s1.381-6.452,4.681-6.452c2.246,0,3.389,1.424,3.842,3.37h2.693Zm2.313,11.55h2.692V66.67h7.013v7.638h2.692V57.374h-2.692v6.739h-7.013V57.374h-2.692Zm15.355-6.092c0,4.34,2.521,6.5,6.32,6.5s6.319-2.158,6.319-6.5V57.374h-2.7v9.871c0,2.277-.13,4.909-3.624,4.909s-3.625-2.632-3.625-4.909V57.374h-2.7V68.217Zm15.639,6.092H445.9V71.751h-7.829V57.374H435.38V74.308Zm12.273,0h11.235V71.751h-8.543V66.789h7.767V64.374h-7.767v-4.44h8.391V57.374H447.653V74.308Zm19.263,0h2.564V61.857h.063l7.013,12.451H479.4V57.374h-2.564V69.852h-.043l-7.033-12.478h-2.845V74.308Zm22.365-18.88h2.458v-2.56h-2.458Zm-1.252-2.56h-2.458v2.56h2.458Zm-5.715,15.349c0,4.341,2.524,6.5,6.32,6.5s6.32-2.157,6.32-6.5V57.374h-2.7v9.871c0,2.277-.13,4.909-3.625,4.909s-3.624-2.632-3.624-4.909V57.374h-2.7V68.217Zm18.332-8.425h4.381c1.4,0,2.676.426,2.676,2.587a2.39,2.39,0,0,1-2.632,2.705h-4.424Zm-2.693,14.516h2.692V67.334h3.971c2.481,0,3.066,1.378,3.066,4.483a5.132,5.132,0,0,0,.41,2.491h2.887c-.582-.687-.842-2.491-.842-4.46,0-2.68-1.358-3.436-2.283-3.578V66.22c.5-.187,2.544-1.017,2.544-4.268,0-2.871-1.725-4.579-5.091-4.579h-7.354V74.308Zm14.969,0h2.564V61.857h.066l7.013,12.451h2.844V57.374h-2.564V69.852H522.8l-7.037-12.478h-2.844V74.308ZM531.191,66.6h4.767a2.367,2.367,0,0,1,2.59,2.609,2.4,2.4,0,0,1-2.59,2.682h-4.767Zm-2.7,7.707h7.076c3.991,0,5.669-2.058,5.669-4.718,0-2.3-1.011-3.914-2.887-4.364v-.045a3.743,3.743,0,0,0,2.2-3.607c0-2.824-1.811-4.2-4.569-4.2H528.5V74.31Zm2.7-14.516h4.4c1.467,0,2.266.618,2.266,2.326a2.157,2.157,0,0,1-2.266,2.349h-4.4Zm12.382,14.516h11.236V71.751h-8.54V66.789h7.763V64.374h-7.763v-4.44h8.391V57.374H543.573V74.308Zm16.175-14.516h4.381c1.4,0,2.676.426,2.676,2.587a2.39,2.39,0,0,1-2.632,2.705h-4.424V59.792Zm-2.692,14.516h2.692V67.334h3.971c2.481,0,3.066,1.378,3.066,4.483a5.132,5.132,0,0,0,.41,2.491h2.887c-.582-.687-.842-2.491-.842-4.46,0-2.68-1.358-3.436-2.283-3.578V66.22c.5-.187,2.544-1.017,2.544-4.268,0-2.871-1.725-4.579-5.091-4.579h-7.354V74.308Zm28.513-8.917h-6.557v2.253h4.1c-.042,2.871-1.553,4.7-4.314,4.652-3.3,0-4.681-3.2-4.681-6.452s1.381-6.455,4.681-6.455a3.764,3.764,0,0,1,3.971,3.37h2.63a6.23,6.23,0,0,0-6.6-5.788c-4.618,0-7.377,4.03-7.377,8.873s2.759,8.871,7.377,8.871a5.37,5.37,0,0,0,4.638-2.4l.41,1.989h1.725V65.392Z" transform="translate(-83.276 -25.129)"/>
    <path id="path6048" d="M4.674,3.493H74.285V40.074L61.361,54.705H74.285V73.09l-31.8-.026V17.883H36.5v55.18H4.687V54.7H17.608L4.687,40.06V3.479Z"/>
  </g>
</svg>
