<svg xmlns="http://www.w3.org/2000/svg" width="296.134" height="26.435" viewBox="0 0 296.134 26.435">
  <g id="Gruppe_81" data-name="Gruppe 81" transform="translate(-650.866 -8784.601)">
    <path id="path37" d="M390.793,517.219h6.515V512.55h-6.515Z" transform="translate(439.244 8272.95)"/>
    <path id="path39" d="M429.176,517.219h6.517V512.55h-6.517Z" transform="translate(425.357 8272.95)"/>
    <g id="g41" transform="translate(735.324 8784.683)">
      <path id="path43" d="M-11.976-.309A15.726,15.726,0,0,1-9.847.133a7.561,7.561,0,0,1,2.25.894,8.374,8.374,0,0,1,1.407.925,7.469,7.469,0,0,1,.842.756A6.212,6.212,0,0,1-4.216,4.2a6.211,6.211,0,0,1,.457,1.01,6.656,6.656,0,0,1,.426,1.782c.018.163.034.416.034.416H-14.836a4.526,4.526,0,0,0-.073-.639,2.19,2.19,0,0,0-.335-.807,2.053,2.053,0,0,0-.722-.666,3.143,3.143,0,0,0-.756-.31,6.345,6.345,0,0,0-1.489-.3,7.865,7.865,0,0,0-2.142-.036,4.454,4.454,0,0,0-.982.174c-.4.111-1.189.416-1.32,1.066a.971.971,0,0,0,.043.675.873.873,0,0,0,.479.471,3.538,3.538,0,0,0,.942.37c1.718.405,2.224.427,3.648.688,2.64.483,4.14.684,6.774,1.177.854.16,1.346.215,2.192.419a11.866,11.866,0,0,1,1.544.431,6.4,6.4,0,0,1,1.477.68,5.541,5.541,0,0,1,1.127.941,6.644,6.644,0,0,1,.878,1.1,6.431,6.431,0,0,1,.941,1.943,6.539,6.539,0,0,1,.272,1.5,5.489,5.489,0,0,1,.03,1.3,4.638,4.638,0,0,1-.124.725,6.035,6.035,0,0,1-.429,1.377,5.851,5.851,0,0,1-.451.834A6.868,6.868,0,0,1-4.115,21.6a6.955,6.955,0,0,1-1.022.988,7.277,7.277,0,0,1-1.209.792,10.323,10.323,0,0,1-1.722.759,15.162,15.162,0,0,1-2.3.633,21.134,21.134,0,0,1-2.686.4c-.867.09-1.36.105-2.231.14-1.456.057-2.28.063-3.734,0A29.125,29.125,0,0,1-23.56,24.9a17.454,17.454,0,0,1-3.235-.777,10.714,10.714,0,0,1-2.077-.889,9.041,9.041,0,0,1-1.977-1.451,6.864,6.864,0,0,1-.969-1.028,5.65,5.65,0,0,1-.85-1.544,5.173,5.173,0,0,1-.306-.964,8.362,8.362,0,0,1-.127-1.173h11.959a1.26,1.26,0,0,0,.325.77,2.954,2.954,0,0,0,.523.571,3.4,3.4,0,0,0,.774.528,4.067,4.067,0,0,0,.971.371,5.534,5.534,0,0,0,1.865.176,5.488,5.488,0,0,0,1.531-.2,3.762,3.762,0,0,0,1.43-.626A1.162,1.162,0,0,0-13.241,18a1.132,1.132,0,0,0-.05-.945,1.309,1.309,0,0,0-.62-.574,7.57,7.57,0,0,0-1.745-.406c-2.847-.541-3.615-.652-5.922-1.1-1.312-.254-1.727-.3-3.36-.666a13.617,13.617,0,0,1-3.532-1.141A6.321,6.321,0,0,1-30.14,12.1a5.971,5.971,0,0,1-1.387-1.621A6.183,6.183,0,0,1-32.473,7.9a5.821,5.821,0,0,1-.081-1.778,6.044,6.044,0,0,1,.718-2.437,3.917,3.917,0,0,1,.6-.936,6.609,6.609,0,0,1,1.8-1.541A7.918,7.918,0,0,1-28.21.55a10.028,10.028,0,0,1,1.694-.571,16.778,16.778,0,0,1,2.064-.443c.9-.15,1.422-.192,2.338-.27a34.753,34.753,0,0,1,3.646-.116c1.321.01,2.068.037,3.386.15,1.215.106,1.9.183,3.106.391" transform="translate(33.101 0.853)"/>
    </g>
    <g id="g45" transform="translate(650.866 8785.556)">
      <path id="path47" d="M-19.164-4.048H-37.03l-1.413,1.655,19.279-.025V13.519H-43.221l-5.65-7.086h20.721V4.751H-50.227L-52.97,1.356l9.8-12.544h24v7.14" transform="translate(52.97 11.188)"/>
    </g>
    <g id="g49" transform="translate(686.44 8785.555)">
      <path id="path51" d="M-16.055-4.048H-35.362v1.655h19.335V13.519H-44.376V6.433H-25.1V4.75H-44.376V-11.189h28.321v7.141" transform="translate(44.376 11.189)"/>
    </g>
    <path id="path53" d="M212.919,537.344h9.86V512.636h-9.86Z" transform="translate(503.597 8272.919)"/>
    <g id="g55" transform="translate(799.107 8785.501)">
      <path id="path57" d="M-5.356-5.234H5.128v-9.232h9.449V10.3H5.128V.74H-5.356V10.3H-14.8V-14.466h9.449v9.232" transform="translate(14.805 14.466)"/>
    </g>
    <g id="g59" transform="translate(862.514 8785.501)">
      <path id="path61" d="M-14.039-3.6H-29.246V-.548h13.415V5.268H-29.246v9.547H-38.8V-9.949h24.765V-3.6" transform="translate(38.804 9.949)"/>
    </g>
    <g id="g63" transform="translate(888.31 8785.5)">
      <path id="path65" d="M-15.581-3.6H-33.586V-.559h14.254V5.252H-33.586V8.428h18.521v6.366h-28V-9.954h27.484V-3.6" transform="translate(43.065 9.954)"/>
    </g>
    <g id="g67" transform="translate(829.439 8785.499)">
      <path id="path69" d="M-7.3-9.405l3.04-7.9,3.039,7.9ZM2.1-26H-10.288L-20.171-1.232h9.883l.9-2.39H.765l1,2.374H12.034L2.1-26" transform="translate(20.171 25.996)"/>
    </g>
    <g id="g71" transform="translate(766.683 8784.601)">
      <path id="path73" d="M-11.169-.124A20.252,20.252,0,0,1-8.882.288,15.471,15.471,0,0,1-6.626.933,11.2,11.2,0,0,1-3.794,2.327,7.466,7.466,0,0,1-2.011,3.877,8.275,8.275,0,0,1-.852,5.46,8.229,8.229,0,0,1,.363,8.682a11.245,11.245,0,0,1,.115,1.462H-9.694a6,6,0,0,0-.057-.631,3.5,3.5,0,0,0-.294-.9A4.485,4.485,0,0,0-10.674,7.6a4.638,4.638,0,0,0-.7-.765,4.2,4.2,0,0,0-1.371-.83,5,5,0,0,0-1.282-.337,5.961,5.961,0,0,0-1.287-.086,5.386,5.386,0,0,0-1.33.162,4.448,4.448,0,0,0-1.387.531,4.049,4.049,0,0,0-1.166.952,4.867,4.867,0,0,0-.641.9,6.017,6.017,0,0,0-.622,1.385,6.756,6.756,0,0,0-.3,1.356,8.983,8.983,0,0,0-.1,1.484,9.918,9.918,0,0,0,.178,2.06,8.1,8.1,0,0,0,.811,2.315A7.685,7.685,0,0,0-19,18.01a5.954,5.954,0,0,0,3.089,1.665,5.608,5.608,0,0,0,1.147.069,6.037,6.037,0,0,0,1.413-.135,4.486,4.486,0,0,0,.976-.3,4.309,4.309,0,0,0,.889-.507,4.309,4.309,0,0,0,.922-.843,3.891,3.891,0,0,0,.517-.759,3.763,3.763,0,0,0,.377-.925,6.692,6.692,0,0,0,.164-1.03H.7a5.032,5.032,0,0,1-.1,1.066A8.212,8.212,0,0,1-.07,18.425,7.735,7.735,0,0,1-.891,19.81,10.693,10.693,0,0,1-1.96,21.147,11.948,11.948,0,0,1-3.1,22.24a12.675,12.675,0,0,1-3.15,2.069,13.838,13.838,0,0,1-1.618.674,16.8,16.8,0,0,1-4.32.942,21.152,21.152,0,0,1-3.37.16,23,23,0,0,1-3.1-.225,16.009,16.009,0,0,1-3.416-.787,14.554,14.554,0,0,1-3.445-1.665,12.16,12.16,0,0,1-2.608-2.27,11.314,11.314,0,0,1-1.484-2.385,13.189,13.189,0,0,1-1.1-4.023,14.385,14.385,0,0,1-.156-2.136,13.939,13.939,0,0,1,.083-1.931,13.815,13.815,0,0,1,.3-1.712,11.1,11.1,0,0,1,.428-1.506,8.912,8.912,0,0,1,.894-1.886,8.287,8.287,0,0,1,.971-1.328,8.7,8.7,0,0,1,1.394-1.3,10.87,10.87,0,0,1,1.651-1.061,12.3,12.3,0,0,1,1.521-.736A13.239,13.239,0,0,1-22.056.591a17.864,17.864,0,0,1,1.93-.463,21.4,21.4,0,0,1,2.412-.341c.857-.082,1.343-.1,2.205-.122.5-.011.783-.011,1.288,0a23.644,23.644,0,0,1,3.051.211" transform="translate(30.871 0.343)"/>
    </g>
    <g id="g75" transform="translate(917.4 8785.497)">
      <path id="path77" d="M-11.527-5.052a1.424,1.424,0,0,1-.359.629,1.461,1.461,0,0,1-.509.372,1.678,1.678,0,0,1-.866.189l-9.179,0V-7.58l9.179,0a1.73,1.73,0,0,1,.866.192,1.459,1.459,0,0,1,.509.372,1.42,1.42,0,0,1,.358.628,1.78,1.78,0,0,1,.085.667A1.754,1.754,0,0,1-11.527-5.052ZM-2.911,9.333a6.926,6.926,0,0,1-.138-.87l-.081-4.479A8.108,8.108,0,0,0-3.182,2.6a4.147,4.147,0,0,0-.306-1.059A3.413,3.413,0,0,0-4.265.347a3.759,3.759,0,0,0-1.5-.933C-6.044-.7-6.5-.817-6.5-.817A5.239,5.239,0,0,0-5.7-1.169,6.121,6.121,0,0,0-3.4-3.216,5.346,5.346,0,0,0-2.667-4.7a6.458,6.458,0,0,0,.3-1.412A7.012,7.012,0,0,0-2.3-7.646a5.906,5.906,0,0,0-.716-2.759A5.512,5.512,0,0,0-4.156-11.95a6.78,6.78,0,0,0-3.1-1.765,8.167,8.167,0,0,0-2.362-.247H-31.86V10.786h9.4v-8.7h7.876a1.841,1.841,0,0,1,1,.253,2.064,2.064,0,0,1,.471.342,2.1,2.1,0,0,1,.488.6,2.176,2.176,0,0,1,.28.964,19,19,0,0,1,.073,2.864,5.9,5.9,0,0,0,.219,1.955,5.3,5.3,0,0,0,.468,1.155,6.4,6.4,0,0,0,.426.569H-2.26a7.173,7.173,0,0,1-.651-1.453" transform="translate(31.86 13.964)"/>
    </g>
  </g>
</svg>
